<mxfile host="app.diagrams.net" modified="2022-04-18T16:16:31.849Z" agent="5.0 (Macintosh; Intel Mac OS X 10_15_7) AppleWebKit/605.1.15 (KHTML, like Gecko) Version/15.4 Safari/605.1.15" etag="jZ86FgwyL9bUPPQLs9wo" version="17.4.5" type="github">
  <diagram id="prtHgNgQTEPvFCAcTncT" name="Page-1">
    <mxGraphModel dx="666" dy="444" grid="1" gridSize="10" guides="1" tooltips="1" connect="1" arrows="1" fold="1" page="1" pageScale="1" pageWidth="827" pageHeight="1169" math="0" shadow="0">
      <root>
        <mxCell id="0" />
        <mxCell id="1" parent="0" />
        <mxCell id="JsCz8-D2HJa2--UIrXjN-56" value="" style="rounded=0;whiteSpace=wrap;html=1;shadow=0;" vertex="1" parent="1">
          <mxGeometry x="115" y="110" width="525" height="165" as="geometry" />
        </mxCell>
        <mxCell id="JsCz8-D2HJa2--UIrXjN-7" value="&amp;amp;&amp;amp;" style="text;html=1;resizable=0;autosize=1;align=center;verticalAlign=middle;points=[];fillColor=none;strokeColor=none;rounded=0;" vertex="1" parent="1">
          <mxGeometry x="324" y="220" width="30" height="20" as="geometry" />
        </mxCell>
        <mxCell id="JsCz8-D2HJa2--UIrXjN-10" value="&amp;amp;&amp;amp;" style="text;html=1;resizable=0;autosize=1;align=center;verticalAlign=middle;points=[];fillColor=none;strokeColor=none;rounded=0;" vertex="1" parent="1">
          <mxGeometry x="474" y="220" width="30" height="20" as="geometry" />
        </mxCell>
        <mxCell id="JsCz8-D2HJa2--UIrXjN-18" value="&lt;h1&gt;VIEWS&lt;/h1&gt;" style="text;html=1;resizable=0;autosize=1;align=center;verticalAlign=middle;points=[];fillColor=none;strokeColor=none;rounded=0;" vertex="1" parent="1">
          <mxGeometry x="127" y="145" width="90" height="50" as="geometry" />
        </mxCell>
        <mxCell id="JsCz8-D2HJa2--UIrXjN-19" value="+" style="text;html=1;resizable=0;autosize=1;align=center;verticalAlign=middle;points=[];fillColor=none;strokeColor=none;rounded=0;" vertex="1" parent="1">
          <mxGeometry x="150" y="220" width="20" height="20" as="geometry" />
        </mxCell>
        <mxCell id="JsCz8-D2HJa2--UIrXjN-35" value="" style="group" vertex="1" connectable="0" parent="1">
          <mxGeometry x="122" y="290" width="520" height="80" as="geometry" />
        </mxCell>
        <mxCell id="JsCz8-D2HJa2--UIrXjN-28" value="" style="rounded=0;whiteSpace=wrap;html=1;shadow=0;" vertex="1" parent="JsCz8-D2HJa2--UIrXjN-35">
          <mxGeometry width="520" height="80" as="geometry" />
        </mxCell>
        <mxCell id="JsCz8-D2HJa2--UIrXjN-20" value="&lt;h1&gt;CONTROLLER&lt;/h1&gt;" style="text;html=1;resizable=0;autosize=1;align=center;verticalAlign=middle;points=[];fillColor=none;strokeColor=none;rounded=0;fontStyle=1" vertex="1" parent="JsCz8-D2HJa2--UIrXjN-35">
          <mxGeometry x="3" y="15" width="180" height="50" as="geometry" />
        </mxCell>
        <mxCell id="JsCz8-D2HJa2--UIrXjN-23" value="Bean Validation" style="rounded=0;whiteSpace=wrap;html=1;" vertex="1" parent="JsCz8-D2HJa2--UIrXjN-35">
          <mxGeometry x="355" y="43" width="134" height="30" as="geometry" />
        </mxCell>
        <mxCell id="JsCz8-D2HJa2--UIrXjN-32" value="Spring and MVC Annotations" style="rounded=0;whiteSpace=wrap;html=1;" vertex="1" parent="JsCz8-D2HJa2--UIrXjN-35">
          <mxGeometry x="355" y="8" width="134" height="30" as="geometry" />
        </mxCell>
        <mxCell id="JsCz8-D2HJa2--UIrXjN-36" value="" style="group" vertex="1" connectable="0" parent="1">
          <mxGeometry x="127" y="490" width="520" height="110" as="geometry" />
        </mxCell>
        <mxCell id="JsCz8-D2HJa2--UIrXjN-37" value="" style="rounded=0;whiteSpace=wrap;html=1;shadow=0;" vertex="1" parent="JsCz8-D2HJa2--UIrXjN-36">
          <mxGeometry x="-5" width="520" height="110" as="geometry" />
        </mxCell>
        <mxCell id="JsCz8-D2HJa2--UIrXjN-38" value="&lt;h1&gt;REPOSITORY&lt;/h1&gt;" style="text;html=1;resizable=0;autosize=1;align=center;verticalAlign=middle;points=[];fillColor=none;strokeColor=none;rounded=0;fontStyle=1" vertex="1" parent="JsCz8-D2HJa2--UIrXjN-36">
          <mxGeometry y="26" width="170" height="50" as="geometry" />
        </mxCell>
        <mxCell id="JsCz8-D2HJa2--UIrXjN-39" value="JBDC" style="rounded=0;whiteSpace=wrap;html=1;" vertex="1" parent="JsCz8-D2HJa2--UIrXjN-36">
          <mxGeometry x="355" y="76" width="134" height="28.99" as="geometry" />
        </mxCell>
        <mxCell id="JsCz8-D2HJa2--UIrXjN-40" value="Spring Data JPA" style="rounded=0;whiteSpace=wrap;html=1;" vertex="1" parent="JsCz8-D2HJa2--UIrXjN-36">
          <mxGeometry x="355" y="6" width="134" height="29" as="geometry" />
        </mxCell>
        <mxCell id="JsCz8-D2HJa2--UIrXjN-47" value="default (JPA)" style="rounded=0;whiteSpace=wrap;html=1;" vertex="1" parent="JsCz8-D2HJa2--UIrXjN-36">
          <mxGeometry x="355" y="41.25" width="134" height="29" as="geometry" />
        </mxCell>
        <mxCell id="JsCz8-D2HJa2--UIrXjN-48" value="" style="rounded=0;whiteSpace=wrap;html=1;shadow=0;" vertex="1" parent="JsCz8-D2HJa2--UIrXjN-36">
          <mxGeometry x="195" y="25.75" width="115" height="60" as="geometry" />
        </mxCell>
        <mxCell id="JsCz8-D2HJa2--UIrXjN-49" value="3 Profiles" style="text;html=1;resizable=0;autosize=1;align=center;verticalAlign=middle;points=[];fillColor=none;strokeColor=none;rounded=0;shadow=0;" vertex="1" parent="JsCz8-D2HJa2--UIrXjN-36">
          <mxGeometry x="220" y="45.75" width="70" height="20" as="geometry" />
        </mxCell>
        <mxCell id="JsCz8-D2HJa2--UIrXjN-53" value="" style="endArrow=classic;html=1;rounded=0;exitX=1;exitY=0.5;exitDx=0;exitDy=0;" edge="1" parent="JsCz8-D2HJa2--UIrXjN-36" source="JsCz8-D2HJa2--UIrXjN-48">
          <mxGeometry width="50" height="50" relative="1" as="geometry">
            <mxPoint x="305" y="70.25" as="sourcePoint" />
            <mxPoint x="355" y="20.25" as="targetPoint" />
          </mxGeometry>
        </mxCell>
        <mxCell id="JsCz8-D2HJa2--UIrXjN-54" value="" style="endArrow=classic;html=1;rounded=0;exitX=1;exitY=0.5;exitDx=0;exitDy=0;entryX=0;entryY=0.5;entryDx=0;entryDy=0;" edge="1" parent="JsCz8-D2HJa2--UIrXjN-36" source="JsCz8-D2HJa2--UIrXjN-48" target="JsCz8-D2HJa2--UIrXjN-39">
          <mxGeometry width="50" height="50" relative="1" as="geometry">
            <mxPoint x="320" y="70.5" as="sourcePoint" />
            <mxPoint x="365" y="35" as="targetPoint" />
          </mxGeometry>
        </mxCell>
        <mxCell id="JsCz8-D2HJa2--UIrXjN-55" value="" style="endArrow=classic;html=1;rounded=0;entryX=0;entryY=0.5;entryDx=0;entryDy=0;" edge="1" parent="JsCz8-D2HJa2--UIrXjN-36" target="JsCz8-D2HJa2--UIrXjN-47">
          <mxGeometry width="50" height="50" relative="1" as="geometry">
            <mxPoint x="310" y="55.41000000000008" as="sourcePoint" />
            <mxPoint x="350" y="55" as="targetPoint" />
          </mxGeometry>
        </mxCell>
        <mxCell id="JsCz8-D2HJa2--UIrXjN-41" value="" style="group" vertex="1" connectable="0" parent="1">
          <mxGeometry x="125" y="390" width="520" height="80" as="geometry" />
        </mxCell>
        <mxCell id="JsCz8-D2HJa2--UIrXjN-42" value="" style="rounded=0;whiteSpace=wrap;html=1;shadow=0;" vertex="1" parent="JsCz8-D2HJa2--UIrXjN-41">
          <mxGeometry x="-3" width="520" height="80" as="geometry" />
        </mxCell>
        <mxCell id="JsCz8-D2HJa2--UIrXjN-43" value="&lt;h1&gt;SERVICE&lt;/h1&gt;" style="text;html=1;resizable=0;autosize=1;align=center;verticalAlign=middle;points=[];fillColor=none;strokeColor=none;rounded=0;fontStyle=1" vertex="1" parent="JsCz8-D2HJa2--UIrXjN-41">
          <mxGeometry x="5" y="15" width="120" height="50" as="geometry" />
        </mxCell>
        <mxCell id="JsCz8-D2HJa2--UIrXjN-44" value="@Transational" style="rounded=0;whiteSpace=wrap;html=1;" vertex="1" parent="JsCz8-D2HJa2--UIrXjN-41">
          <mxGeometry x="355" y="43" width="134" height="30" as="geometry" />
        </mxCell>
        <mxCell id="JsCz8-D2HJa2--UIrXjN-45" value="@Cacheable" style="rounded=0;whiteSpace=wrap;html=1;" vertex="1" parent="JsCz8-D2HJa2--UIrXjN-41">
          <mxGeometry x="355" y="8" width="134" height="30" as="geometry" />
        </mxCell>
        <mxCell id="JsCz8-D2HJa2--UIrXjN-59" value="" style="group" vertex="1" connectable="0" parent="1">
          <mxGeometry x="270" y="120" width="280" height="60" as="geometry" />
        </mxCell>
        <mxCell id="JsCz8-D2HJa2--UIrXjN-17" value="||" style="text;html=1;resizable=0;autosize=1;align=center;verticalAlign=middle;points=[];fillColor=none;strokeColor=none;rounded=0;" vertex="1" parent="JsCz8-D2HJa2--UIrXjN-59">
          <mxGeometry x="160" y="20" width="20" height="20" as="geometry" />
        </mxCell>
        <mxCell id="JsCz8-D2HJa2--UIrXjN-57" value="" style="group" vertex="1" connectable="0" parent="JsCz8-D2HJa2--UIrXjN-59">
          <mxGeometry x="190" width="120" height="60" as="geometry" />
        </mxCell>
        <mxCell id="JsCz8-D2HJa2--UIrXjN-2" value="" style="rounded=1;whiteSpace=wrap;html=1;" vertex="1" parent="JsCz8-D2HJa2--UIrXjN-57">
          <mxGeometry width="120" height="60" as="geometry" />
        </mxCell>
        <mxCell id="JsCz8-D2HJa2--UIrXjN-12" value="Thymeleaf" style="text;html=1;resizable=0;autosize=1;align=center;verticalAlign=middle;points=[];fillColor=none;strokeColor=none;rounded=0;" vertex="1" parent="JsCz8-D2HJa2--UIrXjN-57">
          <mxGeometry x="25" y="20" width="70" height="20" as="geometry" />
        </mxCell>
        <mxCell id="JsCz8-D2HJa2--UIrXjN-58" value="" style="group" vertex="1" connectable="0" parent="JsCz8-D2HJa2--UIrXjN-59">
          <mxGeometry x="30" width="120" height="60" as="geometry" />
        </mxCell>
        <mxCell id="JsCz8-D2HJa2--UIrXjN-1" value="" style="rounded=1;whiteSpace=wrap;html=1;" vertex="1" parent="JsCz8-D2HJa2--UIrXjN-58">
          <mxGeometry width="120" height="60" as="geometry" />
        </mxCell>
        <mxCell id="JsCz8-D2HJa2--UIrXjN-13" value="JSP com &lt;br&gt;Custom Tags" style="text;html=1;resizable=0;autosize=1;align=center;verticalAlign=middle;points=[];fillColor=none;strokeColor=none;rounded=0;" vertex="1" parent="JsCz8-D2HJa2--UIrXjN-58">
          <mxGeometry x="15" y="15" width="90" height="30" as="geometry" />
        </mxCell>
        <mxCell id="JsCz8-D2HJa2--UIrXjN-60" value="" style="group" vertex="1" connectable="0" parent="1">
          <mxGeometry x="194" y="200" width="130" height="60" as="geometry" />
        </mxCell>
        <mxCell id="JsCz8-D2HJa2--UIrXjN-3" value="" style="rounded=0;whiteSpace=wrap;html=1;" vertex="1" parent="JsCz8-D2HJa2--UIrXjN-60">
          <mxGeometry width="130" height="60" as="geometry" />
        </mxCell>
        <mxCell id="JsCz8-D2HJa2--UIrXjN-8" value="Bootstrap (CSS)" style="text;html=1;resizable=0;autosize=1;align=center;verticalAlign=middle;points=[];fillColor=none;strokeColor=none;rounded=0;" vertex="1" parent="JsCz8-D2HJa2--UIrXjN-60">
          <mxGeometry x="15" y="20" width="100" height="20" as="geometry" />
        </mxCell>
        <mxCell id="JsCz8-D2HJa2--UIrXjN-61" value="" style="group" vertex="1" connectable="0" parent="1">
          <mxGeometry x="354" y="200" width="120" height="60" as="geometry" />
        </mxCell>
        <mxCell id="JsCz8-D2HJa2--UIrXjN-5" value="" style="rounded=0;whiteSpace=wrap;html=1;" vertex="1" parent="JsCz8-D2HJa2--UIrXjN-61">
          <mxGeometry width="120" height="60" as="geometry" />
        </mxCell>
        <mxCell id="JsCz8-D2HJa2--UIrXjN-9" value="Webjars" style="text;html=1;resizable=0;autosize=1;align=center;verticalAlign=middle;points=[];fillColor=none;strokeColor=none;rounded=0;" vertex="1" parent="JsCz8-D2HJa2--UIrXjN-61">
          <mxGeometry x="30" y="20" width="60" height="20" as="geometry" />
        </mxCell>
        <mxCell id="JsCz8-D2HJa2--UIrXjN-62" value="" style="group" vertex="1" connectable="0" parent="1">
          <mxGeometry x="504" y="200" width="120" height="60" as="geometry" />
        </mxCell>
        <mxCell id="JsCz8-D2HJa2--UIrXjN-4" value="" style="rounded=0;whiteSpace=wrap;html=1;" vertex="1" parent="JsCz8-D2HJa2--UIrXjN-62">
          <mxGeometry width="120" height="60" as="geometry" />
        </mxCell>
        <mxCell id="JsCz8-D2HJa2--UIrXjN-11" value="Dandelion" style="text;html=1;resizable=0;autosize=1;align=center;verticalAlign=middle;points=[];fillColor=none;strokeColor=none;rounded=0;" vertex="1" parent="JsCz8-D2HJa2--UIrXjN-62">
          <mxGeometry x="25" y="20" width="70" height="20" as="geometry" />
        </mxCell>
      </root>
    </mxGraphModel>
  </diagram>
</mxfile>
